<svg width="24" height="27" viewBox="0 0 24 27" fill="none" xmlns="http://www.w3.org/2000/svg">
<path d="M17.5 26.25C15.7708 26.25 14.2969 25.6406 13.0781 24.4219C11.8594 23.2031 11.25 21.7292 11.25 20C11.25 18.2708 11.8594 16.7969 13.0781 15.5781C14.2969 14.3594 15.7708 13.75 17.5 13.75C19.2292 13.75 20.7031 14.3594 21.9219 15.5781C23.1406 16.7969 23.75 18.2708 23.75 20C23.75 21.7292 23.1406 23.2031 21.9219 24.4219C20.7031 25.6406 19.2292 26.25 17.5 26.25ZM19.5938 22.9688L20.4688 22.0938L18.125 19.75V16.25H16.875V20.25L19.5938 22.9688ZM2.5 25C1.8125 25 1.22396 24.7552 0.734375 24.2656C0.244792 23.776 0 23.1875 0 22.5V5C0 4.3125 0.244792 3.72396 0.734375 3.23438C1.22396 2.74479 1.8125 2.5 2.5 2.5H7.71875C7.94792 1.77083 8.39583 1.17188 9.0625 0.703125C9.72917 0.234375 10.4583 0 11.25 0C12.0833 0 12.8281 0.234375 13.4844 0.703125C14.1406 1.17188 14.5833 1.77083 14.8125 2.5H20C20.6875 2.5 21.276 2.74479 21.7656 3.23438C22.2552 3.72396 22.5 4.3125 22.5 5V12.8125C22.125 12.5417 21.7292 12.3125 21.3125 12.125C20.8958 11.9375 20.4583 11.7708 20 11.625V5H17.5V8.75H5V5H2.5V22.5H9.125C9.27083 22.9583 9.4375 23.3958 9.625 23.8125C9.8125 24.2292 10.0417 24.625 10.3125 25H2.5ZM11.25 5C11.6042 5 11.901 4.88021 12.1406 4.64062C12.3802 4.40104 12.5 4.10417 12.5 3.75C12.5 3.39583 12.3802 3.09896 12.1406 2.85938C11.901 2.61979 11.6042 2.5 11.25 2.5C10.8958 2.5 10.599 2.61979 10.3594 2.85938C10.1198 3.09896 10 3.39583 10 3.75C10 4.10417 10.1198 4.40104 10.3594 4.64062C10.599 4.88021 10.8958 5 11.25 5Z" fill="#795548"/>
</svg>
